# xmcd
#
# Track frame offsets: 
#        150
#        15221
#        24815
#        36671
#        51057
#        68463
#        87726
#        101520
#        114880
#        126527
#        135241
#        144487
#
# Disc length: 2094 seconds
#
# Revision: 2
# Processed by: cddbd v1.5.2PL0 Copyright (c) Steve Scherf et al.
# Submitted via: ExactAudioCopy v0.99pb3
#
DISCID=95082c0c
DTITLE=Ray Campi Quartet - Train Rhythm Blue
DYEAR=1998
DGENRE=Americana
TTITLE0=Tear It Down
TTITLE1=Hot Water
TTITLE2=Lorena
TTITLE3=Little Love Lies
TTITLE4=Luther Played Guitar
TTITLE5=Don't Forget The Train
TTITLE6=Burning In Water, Drowning In Flame
TTITLE7=Here Comes That Heartache
TTITLE8=An Honest Bar
TTITLE9=The One Who Got Away
TTITLE10=If Two Ends Meet
TTITLE11=(Brown Eyes And) Train Rhythm Blue
EXTD=
EXTT0=
EXTT1=
EXTT2=
EXTT3=
EXTT4=
EXTT5=
EXTT6=
EXTT7=
EXTT8=
EXTT9=
EXTT10=
EXTT11=
PLAYORDER=
